<svg id="artwork" xmlns="http://www.w3.org/2000/svg" viewBox="0 0 512 512"><title>Critical_Thinking</title><g id="Critical_Thinking"><circle cx="230.36" cy="97.91" r="12.56" style="fill:#59aee4"/><path d="M325,320.84l-1.23,1.91L342,413.84l-134,38.4-1.59-5.11-10.18-32.78H144.06l-20.2-63.76L93,342.15l26.27-61.82-.35-1.84c-.06-.3-.11-.59-.16-.87l0-.13a120.8,120.8,0,0,1-2-22.12v-.64a118.87,118.87,0,0,1,14.78-56.93,116.65,116.65,0,0,1,21.26-27.62,115.17,115.17,0,0,1,20.07-15.4,112.05,112.05,0,0,1,22.8-10.52,110.21,110.21,0,0,1,16.15-4,111.51,111.51,0,0,1,18.92-1.61c36,0,69.09,16.85,90.85,46.26A116.41,116.41,0,0,1,335,208.42a118.13,118.13,0,0,1,9.59,46v.1c0,.29,0,.56,0,.85,0,2.82-.1,5.65-.3,8.41a118,118,0,0,1-19,56.55C325.2,320.5,325.09,320.68,325,320.84Z" style="fill:#c6d0dc"/><path d="M300.44,322.32l-1.22,1.9,18.21,91.1L206.37,447.13l-10.18-32.78H144.06l-20.2-63.76L93,342.15l26.27-61.82-.35-1.84c-.06-.3-.11-.59-.16-.87l0-.13a120.8,120.8,0,0,1-2-22.12v-.64a118.87,118.87,0,0,1,14.78-56.93,116.65,116.65,0,0,1,21.26-27.62,115.17,115.17,0,0,1,20.07-15.4,112.05,112.05,0,0,1,22.8-10.52,110.21,110.21,0,0,1,16.15-4c33.79,1.66,64.6,18.26,85.22,46.12a115.78,115.78,0,0,1,13.53,23.55,118.22,118.22,0,0,1,9.59,46v.1c0,.29,0,.56,0,.85,0,2.83-.11,5.66-.3,8.42a118,118,0,0,1-19,56.54C300.66,322,300.54,322.15,300.44,322.32Z" style="fill:#fff"/><circle cx="421.64" cy="121.75" r="12.56" transform="translate(239.18 520.89) rotate(-81.54)" style="fill:#f7c648"/><circle cx="230.36" cy="291.85" r="12.56" style="fill:#59aee4"/><circle cx="309.29" cy="194.57" r="24.29" transform="translate(-46.99 275.69) rotate(-45)" style="fill:#fff"/><circle cx="431.17" cy="177.47" r="12.56" style="fill:#fff"/><path d="M375.18,203.35a70.43,70.43,0,0,0,0-17.41l-17.63-6.26a52.93,52.93,0,0,0-4.35-10.53l8-16.88a69.51,69.51,0,0,0-12.3-12.3L332,148a52.93,52.93,0,0,0-10.53-4.35L315.25,126a70.43,70.43,0,0,0-17.41,0l-6.26,17.63A52.93,52.93,0,0,0,281.05,148l-16.87-8a69.24,69.24,0,0,0-12.31,12.3l8,16.88a52.93,52.93,0,0,0-4.35,10.53l-17.63,6.26a70.43,70.43,0,0,0,0,17.41l17.63,6.26a52.93,52.93,0,0,0,4.35,10.53l-8,16.88a69.24,69.24,0,0,0,12.31,12.3l16.87-8a52.93,52.93,0,0,0,10.53,4.35l6.26,17.63a70.43,70.43,0,0,0,17.41,0l6.26-17.63A52.93,52.93,0,0,0,332,241.3l16.88,8a69.51,69.51,0,0,0,12.3-12.3l-8-16.88a52.93,52.93,0,0,0,4.35-10.53Zm-66.61,15.19a25.13,25.13,0,1,1,25.13-25.13A25.13,25.13,0,0,1,308.57,218.54Z" style="fill:#ef835e"/><path d="M325.27,185.43a18.36,18.36,0,0,1-3.07,22.36,18.12,18.12,0,0,1-4.24,3.1,18.37,18.37,0,0,1-21.44-29.37,18.51,18.51,0,0,1,19.2-4.13l4.12-11.27A30.38,30.38,0,1,0,309.38,225c.45,0,.89,0,1.34,0a30.38,30.38,0,0,0,24.92-45.58Z"/><path d="M431.17,158.91a18.55,18.55,0,0,0-6,36.1v21.66H378v12h59.17V195a18.55,18.55,0,0,0-6-36.1Zm0,25.12a6.56,6.56,0,1,1,6.56-6.56A6.57,6.57,0,0,1,431.17,184Z"/><path d="M363,213l18.3-6.37.4-3.13a71.87,71.87,0,0,0,0-18.38l-.4-3.12L363,175.65a55.7,55.7,0,0,0-2.73-6.47L368.63,152l-2-2.49c-1.07-1.36-2.2-2.67-3.37-3.95V127.21h41.08a18.56,18.56,0,1,0,0-12H351.29V135l-.46-.35-17.52,8.16a57.48,57.48,0,0,0-6.61-2.68l-6.51-17.91-3.19-.39c-.54-.07-1.08-.12-1.63-.18V91.38H248.18a18.56,18.56,0,1,0,0,12h55.19v18c-1.72.09-3.44.24-5.15.45l-3.19.39-6.5,17.91a56.91,56.91,0,0,0-6.62,2.68l-17.52-8.16-2.54,1.94-1.52,1.19-1.71-.44a118.24,118.24,0,0,0-27.29-3.17A116.77,116.77,0,0,0,194.56,140a119.07,119.07,0,0,0-44.91,27.15A121.53,121.53,0,0,0,127.45,196,123.92,123.92,0,0,0,112,255.33c0,.24,0,.49,0,.75a124.1,124.1,0,0,0,2,22.57L92,330.66l-6.45,15.22,35.6,9.73L141,418.29H190.6l12,38.57,147.26-42.18L331.4,322.46a123.36,123.36,0,0,0,18.94-57.61c.2-2.88.31-5.83.31-8.77,0-.19,0-.38,0-.57s0-.32,0-.48c0-.35,0-.69,0-1l.21.1,2.54-1.94a74,74,0,0,0,13.29-13l2-2.49-8.33-17.15A55.85,55.85,0,0,0,363,213Zm58.89-98.38a6.56,6.56,0,1,1-6.57,6.56A6.57,6.57,0,0,1,421.92,114.65ZM230.64,103.94a6.57,6.57,0,1,1,6.56-6.56A6.57,6.57,0,0,1,230.64,103.94Zm109,160.16A112.37,112.37,0,0,1,321.55,318l-.32.49-1.16,1.82,17.36,86.82L209.69,443.7l-7.89-25.41h21.64V407.6H148.8l-19.25-60.76-29.43-8,25-58.93-.33-1.75q-.09-.41-.15-.84l0-.1a115.09,115.09,0,0,1-2-21.09v-.6a113.18,113.18,0,0,1,14.1-54.26,110.93,110.93,0,0,1,20.26-26.34,108.85,108.85,0,0,1,19.12-14.67,105.89,105.89,0,0,1,55.15-15.4,108,108,0,0,1,18.58,1.6l1.11.21c-.51.58-1,1.16-1.51,1.76-.33.38-.64.77-.94,1.16l-2,2.49,8.33,17.15a55.7,55.7,0,0,0-2.73,6.47L233.89,182l-.4,3.12c0,.31-.07.61-.1.92H202.46a18.56,18.56,0,1,0,0,12H233c.09,1.83.25,3.66.48,5.46l.4,3.13,18.3,6.37a55.85,55.85,0,0,0,2.73,6.48l-6,12.29H224.64v42a18.56,18.56,0,1,0,12,0v-30h15.73v-.23a73.52,73.52,0,0,0,9.48,8.58l2.54,1.94,17.52-8.16a58.73,58.73,0,0,0,6.62,2.68l6.5,17.91,3.19.39a77.63,77.63,0,0,0,18.78,0l3.19-.39,6.51-17.91a59.34,59.34,0,0,0,6.61-2.68l4,1.88,2.38,1.1.09,1.45c.08,1.6.13,3.2.14,4.8v.11c0,.28,0,.54,0,.81C340,258.77,339.86,261.47,339.67,264.1Zm-148.2-72a6.56,6.56,0,1,1-6.56-6.57A6.57,6.57,0,0,1,191.47,192.07Zm45.73,99.24a6.56,6.56,0,1,1-7.48-6.48h1.83A6.55,6.55,0,0,1,237.2,291.31Zm112.23-49.2-2.12-1-11.23-5.24-3-1.4-2.34,1.25a47.8,47.8,0,0,1-9.53,3.86l-2.56.73-6.08,16.75a67.47,67.47,0,0,1-9.85,0l-6.09-16.75-2.55-.73a47.56,47.56,0,0,1-9.53-3.86l-2.34-1.25-16.38,7.62a64.16,64.16,0,0,1-7-6.82l7.78-16L265.33,217a46.69,46.69,0,0,1-3.95-9.34l-.74-2.5-17.11-6c-.12-1.61-.18-3.22-.18-4.82s.06-3.22.18-4.83l17.11-6,.74-2.51a46.6,46.6,0,0,1,3.95-9.33l1.28-2.3-7.78-16c.71-.81,1.44-1.6,2.2-2.38a62.91,62.91,0,0,1,4.77-4.45l16.38,7.63,2.34-1.25c1.15-.62,2.34-1.2,3.55-1.72a46.65,46.65,0,0,1,6-2.14l2.55-.74,6.09-16.74a64.78,64.78,0,0,1,9.85,0l6.08,16.74,2.56.74a47.8,47.8,0,0,1,9.53,3.86l2.34,1.25,16.38-7.63a64.25,64.25,0,0,1,7,6.83l-7.79,16,1.28,2.29a45.44,45.44,0,0,1,3.94,9.33l.75,2.51,17.1,6c.13,1.61.2,3.22.2,4.83s-.07,3.21-.2,4.82l-17.1,6-.75,2.5a45.52,45.52,0,0,1-3.94,9.34l-1.28,2.29,7.79,16A64.16,64.16,0,0,1,349.43,242.11Z"/></g></svg>